<?xml version="1.0" encoding="UTF-8" standalone="no"?>
<svg
   version="1.1"
   viewBox="0 0 1254 1254"
   width="1254"
   height="1254"
   id="svg241"
   sodipodi:docname="aetherhound_mesgjs_logo.svg"
   inkscape:version="1.4 (e7c3feb100, 2024-10-09)"
   inkscape:export-filename="aetherhound_mesgjs_logo-256sq.png"
   inkscape:export-xdpi="19.598085"
   inkscape:export-ydpi="19.598085"
   xmlns:inkscape="http://www.inkscape.org/namespaces/inkscape"
   xmlns:sodipodi="http://sodipodi.sourceforge.net/DTD/sodipodi-0.dtd"
   xmlns="http://www.w3.org/2000/svg"
   xmlns:svg="http://www.w3.org/2000/svg">
  <defs
     id="defs241" />
  <sodipodi:namedview
     id="namedview241"
     pagecolor="#ffffff"
     bordercolor="#000000"
     borderopacity="0.25"
     inkscape:showpageshadow="2"
     inkscape:pageopacity="0.0"
     inkscape:pagecheckerboard="0"
     inkscape:deskcolor="#d1d1d1"
     inkscape:zoom="0.6722488"
     inkscape:cx="627"
     inkscape:cy="640.3879"
     inkscape:window-width="1920"
     inkscape:window-height="1052"
     inkscape:window-x="0"
     inkscape:window-y="0"
     inkscape:window-maximized="1"
     inkscape:current-layer="svg241" />
  <path
     transform="translate(0)"
     d="m0 0h1254v1254h-1254z"
     fill="#FBFBFB"
     id="path1" />
  <path
     transform="translate(78,128)"
     d="m0 0h10l10 6 10 9 12 11 7 7 8 7 15 14 11 9 16 13 16 12 23 16 20 13 28 17 24 13 27 13 30 12 40 14 42 13 15 6 17 9 10 8 8 7 10 13 8 16 7 19 7 20 11 21 8 10 9 10 12 9 14 8 11 5 9 3 1-7 8-16 9-12 7-8h2l1-8 4-12-4 1 3-19 4-17-7-8-6-18-6-9-12-11-12-12-10-14-5-11-2-8v-12l4-11 8-11 11-10 13-10 13-11 8-7 7-8 11-13 11-10 12-6 8-2 17-1 15-8 15-5 15-3 9-1h28l17 2 21 5 17 7 10 7 16 3 9 5 7 6 7 11 9 22 7 11 10 11 8 7 11 10 6 10 2 7v13l-4 14-8 15-12 17-2 5-4 17-5 10-6 5-2 1h-9l-6-4-5-5-2 3 1 5 4 8 1 11v9l-4 11-8 9-2 1 1 12 3 15v12l-1 2v18l12-6 11-9 7-6 11-14 7-11 8-15 14-34 9-17 7-9 9-10 9-8 13-9 17-10 25-14 21-13 21-14 12-9 10-8 11-9 10-9 8-7 15-14 7-7 7-8 7-7 7-8 24-28 12-13 8-5h9l5 6 1 3v22l-4 18-7 20-12 25-11 17 10-6 3-1h7l4 3 1 3v11l-4 15-7 16-10 18-11 15-9 11-11 11 14-4 6 1 3 3 1 7-3 11-8 16-10 14-11 12-9 9-13 10-9 6 7-1h9l4 2 2 4-1 8-7 12-9 11-9 9-13 10-16 9-16 7 12 2 3 3 1 5-5 10-11 11-15 10-13 6-16 5-13 3 8 5 1 6-4 6-11 7-12 5-9 2-9 1h-14l3 3-1 6-6 4-10 3-12 1-14-2v5l-4 3-4 1h-15l-10-3-2-1 1 10v19l-3 26-6 24-8 20-12 25-4 13-13 78-5 38-3 35-1 19v29l2 22 4 20 6 16 3 5v2l12 3 9 4 6 4 7 7 6 12 2 7 1 11-3 9-4 4-5 2-12 2-41 1-20-2-11-4-8-9-5-13-5-20-6-32-4-9-4-7-1-5 1-27-3-40-7-63-4-33-1-14v-10l1-6-14 7-2-2-15 7-22 6-13 2-19 1-1 12-6 39-5 46-1 15v42l1 9v21l5 21 4 10 11 8 7 7 5 12 2 7v18l-4 8-7 4-10 2-14 1h-24l-25-1-12-3-5-3-6-10-2-11 1-34v-24l-3-16-1-3v-19l1-12v-21l-3-56-2-28-6 11-9 12-11 12-10 10-11 9-9 10-6 12-2 8v23l5 25 6 18 4 7 16 5 8 6 6 8 5 12v16l-5 6-10 3-7 1h-43l-10-2-8-5-6-10-5-18-16-74-7-29-2-10 1-9 4-8 12-14 8-13 6-17 2-14-1-15-5-18-11-24-4 5-13 22-9 14-11 16-8 10-11 13-14 14-11 9-15 13-10 10-7 10-10 19-9 24-7 28-2 12v18l5 5 6 8 3 9 1 6v11l-3 9-5 4-11 3-17 1h-16l-26-1-9-3-6-7-2-6v-13l4-17 12-36 9-30 7-29 5-32 4-9 7-8 8-9 9-16 7-19 7-26v-4l-8 7-13 8-15 7-16 4h-21l-5-2 2-4 2-2h-14l-14-2-14-5-13-7-12-11-4-5-1-4 1-1 10 1-9-7-7-7-9-14-6-13-3-11v-12l3-5 4-2 9 2 17 8 17 5 13 2h23l19-3 18-6 16-8 13-8 13-10 10-9 6-5 7-8 12-13 9-11 15-16 8-9 7-8 16-16 16-12 12-8-11 1h-19l-14-3-8-4-3-3v-6l5-4h-16l-17-2-15-4-16-7-9-7-3-5 1-6 3-3 8-3-28-7-15-6-15-8-12-9-8-8-4-8 1-7 4-3 15-3-16-6-23-11-15-10-11-9-9-8-8-10-5-8-1-3v-9l4-4 3-1 16 1 8 1-16-9-16-11-13-11-14-14-10-13-8-16-1-3v-11l5-5h12l16 5 1-1-9-7-12-11-7-7-9-11-9-13-10-19-4-13-1-11 2-7 3-3 7-1 10 3 19 10v-1l-7-8-13-18-10-18-8-19-4-13-2-11v-18l3-8z"
     fill="#021C3B"
     id="path2" />
  <path
     transform="translate(611,459)"
     d="m0 0h2l4 13 9 17 11 14 12 12 14 11 17 11 16 8 14 6 21 7 21 4 18 2v3l-10 5-10 9-6 10-3 7-1 5v17l4 11 6 10 9 8 10 5 8 2h13l10-3 9-5 7-6 8-14 2-8v-17l-4-13-6-9-2-4-4-2-9-6-7-3 2-5 15-5 11-6 12-11 7-10 4-7 2 3 9 25 4 13-1 3-4-5 4 10 4 21v6l-2-2-4-8 5 24 1 6v16l1 12v24l-2 19-6 25-8 21-9 19-10 18 3-1-5 27-8 49-6 45-3 33-1 19v33l2 22 4 19 5 15 6 12 4 4 17 5 9 6 7 9 4 13v8l-4 4h-2v-8l-4-13-4-6-6-5 6 10 2 7v14l-3 3-16 1-4-1v-9l-4-13-4-5-8-4 5 5 4 9 1 7-2 9-4 2h-13l-15-2-6-3-6-8-5-16-10-50-1-4-3-1-3-7v-40l-4-46-9-78-1-24 3-16 3-7 5-10-5 4-12 10-16 8-23 9-19 5-12 2h-16l5-21 6-17 8-16 6-11-10 11-9 13-7 14-5 15-6 29-7 44-4 34-2 27v42l1 9v20l4 20 6 16 4 6 9 5 6 7 5 13 1 12-3 7-6 2h-8v-13l-4-13-4-6-5-4 5 9 2 9v12l-3 7-4 1h-16l-5-1v-13l-3-12-4-6-3-1 3 7 1 13-2 9-2 3h-11l-10-2-5-4-2-5-1-7v-13l1-38-2-20-3-11 1-14 1-26-2-48-6-84-3-35h-2v-12l5-18v-23l-8-38-2-17-1-17-1 9v23l4 28 2 12v15l-4 16-3 11 1 14 1 5v7l-9-2-27-12-26-11-5-2 3-2-11-2h-14l-13 4-7 4v-3l-9 10-12 19-13 22-13 19-10 13-12 14-12 12-11 9-14 12-11 11-10 15-8 15-9 24-6 21-4 21-1 18 2 11 8 6 4 8 2 13-2 8-3 2-10 1v-16l-4-11-5-4 3 7 1 5v9l-3 10-2 1h-16l-5-1v-20l-4-8-2-1 2 7v8l-3 11-2 3h-13l-6-3-2-4v-14l5-17 16-49 9-35 5-27 3-16 7-8 8-9 8-13 8-19 6-20 6-25 9-47 7-31 8-24 10-23 9-17 8-12 10-13 11-12 11-10 18-13 16-9 22-11 44-18 25-13 12-8 9-7 1 2-5 11 10-13 24-36 9-12 6-7h2l1 9 2-7 4-20 6-14 10-14z"
     fill="#FCD18E"
     id="path3" />
  <path
     transform="translate(438,808)"
     d="m0 0 3 3 10 22 5 18 1 15-2 14-6 17-9 14-11 13-4 8-1 9 7 31 10 44 10 46 4 12 5 8 10 5 7 1h43l15-3 5-4 1-2v-16l-5-12-6-8-9-6-14-4-5-8-6-18-5-25v-23l4-13 7-11 8-8 11-9 16-16 10-13 9-15h1l4 62 1 23v21l-1 12v19l3 11 1 8v24l-1 34 2 11 5 8v2l5 2 12 3 25 1h24l20-2 8-3 4-4 2-5v-18l-5-15-4-6-9-8-6-4-4-8-5-19-1-5v-21l-1-9v-42l3-35 5-41 6-36 26-3 22-5 13-5 9-4 1 2 12-6h2v16l3 31 8 68 3 34 1 20-1 24 3 9 4 6 4 16 6 31 5 17 5 10 7 6 9 3 20 2 51-1 10-4 4-7 1-7 27 3 20 4 9 4 1 4-4 3-15 4-29 4-47 4-55 3-60 2-40 1h-162l-91-2-80-3-57-3-68-5-35-4-14-3-8-4 2-4 13-4 19-3 14-1 1-2 3 8 6 5 7 2 26 1h16l17-1 11-3 5-5 2-7v-11l-3-12-5-9-6-5-1-2v-18l5-25 6-21 8-20 9-17 8-11 14-14 11-9 14-12 14-14 9-11 11-15 10-15 9-15 10-17z"
     fill="#CCCACA"
     id="path4" />
  <path
     transform="translate(737,183)"
     d="m0 0h25l18 2 17 4 13 5 11 6 9 6 1-2 12 3 8 5 7 10 9 22 7 12 11 12 7 7 8 7 7 8 3 9v9l-4 13-8 16-5 5-1-15-2-8v-13l-3-8-7-6-10-6-3-14-2-19-5-15-6-10-8-9-7-5 6 8 8 13 5 12 3 27 1 8-14-7 5-5 2-10h3l-5-10-4-4-6-1-5 3h-2l-1-3 3-7 3-4h2l-1-3 6 1-5-5-3-2h-6l-3 6v25l1 8h2l3 7 8 6 22 12-4 1h-19l-12 4-7 6-2 5v9l5 8 12 13 9 6 7 4-1 7-3 8-15 8-12 7-13 5-5 1h-22l-15-5-13-8-14-11-5-4v-2l8-3-9-2-9 1-7 6-2 12h2l1-4 3-1 8 16 8 10 11 11 15 10 17 8 19 7 12 3 7 1h13l9-2 7-4-2 6-6 8-7 4-9 3-14 1-13-2-15-5-26-13-19-7-5-1 12 9 21 12 15 8 15 5 12 2h10l12-2 5-1 5 22-1 3-1-1v10l-3 14-6 11-9 9-14 8-15 5-5-4-2-1h-8l-5 3-2 2h-9l-22-4-24-8-21-10-19-12-16-13-13-13-10-13-8-14-3-9-1-12-1-1-2 1 2-11 4-14 10-2 10-6 9-10 8-13 6-15 3-12 1-9v-20l-3-31 1-18 5-17 4-9-1-2 7-13-12 12-6 10-5 16-1 8v18l3 28v12l-2 16-5 16-8 15-11 12-7 4h-9l-5-4-3-8-4-13-8-10-7-7-8-7-9-10-7-11-5-12v-14l4-8 9-10 13-11 10-8 14-12 7-7 9-11 10-11 11-7 8-3 20-1 12-7 20-7z"
     fill="#FCD18E"
     id="path5" />
  <path
     transform="translate(1190,182)"
     d="m0 0 3 1 1 2v11l-3 15-5 16-7 16-12 23-13 19-11 14-12 14-22 22-8 7-10 8 1 2 14-10 11-8 21-16 14-11 18-14 11-7h3l-1 10-6 16-9 17-9 13-11 14-23 23-11 9-17 13-22 14-12 7-1 2 32-14 20-9 29-13 8-3h4l-1 7-7 13-9 12-9 10-11 11-16 12-21 13-19 10-25 10-9 3 10-1 44-9 21-4 10-1-1 5-6 9-7 8-8 7-15 11-19 10-27 9-25 5-10 1 2 1 45 4 14 2 2 2-9 10-10 7-16 8-13 4-11 2-12 1h-17l-18-1 40 20v4l-10 5-10 3-7 1h-17l-20-4-19-7 11 9 13 11 5 4v2l-4 2h-21l-14-4-12-6-5-4 15 21v2h-8l-14-4-2-1-1-12v-19h3l-3-1-2-17-2-19-5-19-8-22-2-5 1-4 14-8 14-11 10-10 10-13 12-21 15-36 10-19 9-11 9-9 15-11 26-15 25-14 22-14 20-14 13-10h2l2-4 4-1 1-3 4-2 2-3 5-3 4-5 5-3 9-10 5-3 8-8 3-5 10-9 3-5 6-5 2-4 4-3 2-4 4-3 3-5 3-2 2-4 5-4 3-5 8-7z"
     fill="#133178"
     id="path6" />
  <path
     transform="translate(250,268)"
     d="m0 0 5 2 26 14 22 11 34 14 28 10 34 11 23 7 19 8 11 6 9 7 8 7 9 12 8 16 14 39 10 19 9 12 14 14 16 11 16 8 13 5-6 7-11 14-10 15-8 11-10 9-16 11-17 10-6 2 4-7-1-1-9 6-11 4h-17l-5-3 1-4 5-5 6-5-10 3-13 3h-13l-11-3-8-5-1-4 5-4 13-6-8 1h-26l-12-3-12-6-10-9-1-5 3-3 14-2 23-3-22-2-19-5-14-6-10-7-9-8-5-8 1-6 2-1h19l24 2-20-5-16-6-15-8-12-9-11-11-9-14-2-6 1-7 2-1h7l40 12h3l-16-8-12-7-12-9-13-12-10-13-8-14-4-11v-6l4-4 9 2 29 14 14 7h2l-14-9-13-11-10-9-10-11-12-17-9-19-2-7v-7z"
     fill="#E2B673"
     id="path7" />
  <path
     transform="translate(83,140)"
     d="m0 0 5 1 10 8 7 7 5 4 7 8 11 9 7 7 10 8 5 5 5 4v2l5 2v2l5 2v2l4 2 3 1v2l4 1v2l4 1 1 2 3 1v2l4 1v2h3v2l5 2 15 10v2h3v2l4 1 21 13 12 7-2 5v7l4 12 9 17 12 16 12 13 14 12 14 10 5 3-3 1-30-15-15-7-7-1-3 3 1 10 8 16 9 13 11 12 14 11 13 8 15 8 7 3-3 1-34-10-10-3h-9v7l4 9 7 11 12 12 15 10 17 8 20 6 9 2 1 2-25-2h-21v6l6 9 9 8 14 8 18 6 16 3 16 1-1 2-33 4-6 1 1 7 9 8 7 4-3 3-19 3-10 1h-32l-22-3-19-5-16-6-14-8-10-8-4-4v-3l9-1 82-4 13-1-27-2-27-4-28-7-21-7-16-7-17-9-18-13-15-15-4-7v-3l13 1 38 7 37 7 41 7-1-2-36-10-28-10-23-10-19-10-18-11-14-10-12-11-5-4-9-11-6-8-6-12 1-4 11 2 23 8 42 16 34 12 24 8 1-1v-2l-9-3-30-14-26-14-24-15-16-12-9-7-10-9-14-14-13-18-8-15-4-13 1-7 5 1 17 9 49 29 26 15 34 18 19 9-13-7-1-3-21-13-23-16-13-10-11-9-10-9-20-20-11-14-11-15-10-19-6-15-4-15-1-6v-11z"
     fill="#133178"
     id="path8" />
  <path
     transform="translate(856,588)"
     d="m0 0h1l5 24 1 6v16l1 12v24l-2 19-6 25-8 21-9 19-10 18 3-1-5 27-8 49-6 45-3 33-1 19v33l2 22 4 19 5 15 6 12 4 4 17 5 9 6 7 9 4 13v8l-4 4h-2v-8l-4-13-4-6-6-5 6 10 2 7v14l-3 3-16 1-4-1v-9l-4-13-4-5-8-4 5 5 4 9 1 7-2 9-4 2h-13l-15-2-6-3-6-8-5-16-10-50-1-4-3-1-3-7v-40l-4-46-9-78-1-24 3-16 3-7 5-10-5 4-12 10-16 8-23 9-19 5-12 2h-16l5-21 6-17 8-16 6-11-10 11-9 13-7 14-5 15-2 4-1-1v-13l4-10 3-6-7 8-5 9-1-3 5-12 12-16 13-16 13-17 10-18 6-15 4-15 1-11 2-1 1 10v17l-2 14-5 27-5 22-1 2 18-2 18-6 13-7 12-9 12-12 6-8 1 2-6 22-5 11 14-8 13-9 11-12 8-14 6-18h1l1 5v10l-1 10 8-16 5-16 2-7h1v21l11-23 5-19 3-21h1l1 5v18l6-23 1-28 2-5h-2l-1 7-11 21-8 10-5 6v-3l9-19 4-17 1-14 2 2 2 19 5-20z"
     fill="#D79F53"
     id="path9" />
  <path
     transform="translate(1078,296)"
     d="m0 0h2l1 3v10l-4 13-8 16-10 15-13 15-7 7-11 9 14-8 22-13 4 1 1 1v8l-4 11-7 13-11 14-10 10-17 13-12 7h-2v2l21-9 11-4 5 1 1 1-1 9-7 12-8 10-7 7-12 9-16 9-9 4 29-5 4 1 1 4-4 8-9 10-8 7-11 7-16 6-13 3h-4v2h14l9 1 3 2-1 6-8 8-10 6-10 4-10 2h-20l11 4 7 4-1 4-7 6-10 4-11 1-13-2h-4l9 8-2 4-7 3h-14l-6-2-2-17-2-19-5-19-8-22-2-5 1-4 14-8 14-11 10-10 10-13 12-21 15-36 10-19 9-11 9-9 15-11 26-15 25-14 22-14 20-14z"
     fill="#D8A054"
     id="path10" />
  <path
     transform="translate(733,813)"
     d="m0 0h2v16l3 31 8 68 3 34 1 20-1 24 3 9 4 6 4 16 6 31 2 8v6l-57-2-41-1-5-13-7-8-11-8-4-8-5-19-1-5v-21l-1-9v-42l3-35 5-41 6-36 26-3 22-5 13-5 9-4 1 2z"
     fill="#FBFBFB"
     id="path11" />
  <path
     transform="translate(438,808)"
     d="m0 0 3 3 10 22 5 18 1 15-2 14-6 17-9 14-11 13-4 8-1 9 7 31 10 44 10 46 4 12 4 6-1 2-3-3h-34l-54 1-52 2-2 9-4 6-4 3-8 2h-13v-1l15-2 8-3 4-6 1-5v-11l-3-12-5-9-6-5-1-2v-18l5-25 6-21 8-20 9-17 8-11 14-14 11-9 14-12 14-14 9-11 11-15 10-15 9-15 10-17z"
     fill="#FBFBFB"
     id="path12" />
  <path
     transform="translate(465,790)"
     d="m0 0h11l12 3 17 8 22 12 19 8 7 3 2 20v9l-8 18-7 12-11 14-17 17-8 7-11 11-7 12-3 10-1 7v16l3 20 6 22 5 13 5 8 16 4 6 4 6 7 3 6 1 5v9l-1 2h-2l-2-13-4-8-5-5 5 9 1 4v13l-2 2h-16v-9l-4-11-7-6 2 3 4 11-1 10-3 3h-13l-11-1-7-3-4-5-4-11-19-89-7-30 1-8 8-10 9-12 8-15 5-16 1-5v-24l-4-17-9-21-5-12v-3l10-6z"
     fill="#D69E52"
     id="path13" />
  <path
     transform="translate(1078,296)"
     d="m0 0h2l1 3v10l-4 13-8 16-10 15-13 15-7 7-11 9 14-8 22-13 4 1 1 1v8l-4 11-7 13-7 9v-3l9-14 5-11 2-11-2-2-11 7 5-2h4l-1 8-4 10-7 11-9 11-12 12-13 10-16 9-19 9-24 8-10 2 1-6 9-22 8-16h2l2-5 11-12 4-1 7-8 15-15 7-8 8-10 2-6-8 11-12 12-17 13-10 8-9 8-9 13-9 19-10 24-10 19-8 11-12 14-12 11-16 11-16 8-5 2-5-12-3-7 1-4 14-8 14-11 10-10 10-13 12-21 15-36 10-19 9-11 9-9 15-11 26-15 25-14 22-14 20-14z"
     fill="#FCD28F"
     id="path14" />
  <path
     transform="translate(831,771)"
     d="m0 0 1 2-5 25-8 49-6 45-3 33-1 19v33l2 22 4 19 5 15 6 12 4 4 17 5 9 6 7 9 4 13v8l-4 4h-2v-8l-4-13-4-6-6-5 6 10 2 7v14l-3 3-16 1-4-1v-9l-4-13-4-5-8-4 5 5 4 9 1 7-2 9-4 2h-13l-15-2-6-3-6-8-5-16-6-31v-10l-3-32v-40l8-59 5-27 4-17 6-19 6-16 7-13 9-12 9-10 8-7z"
     fill="#FCD18D"
     id="path15" />
  <path
     transform="translate(258,276)"
     d="m0 0 4 1 13 9 2-1v-2l6 2 29 14 33 13 41 14 36 11 19 8 11 6 9 7 8 7 9 12 8 16 14 39 10 19 9 12 14 14 16 11 16 8 13 5-6 7-10 13-12-3-10-4-12-6-15-10-15-13-10-12-8-13-9-19-11-31-8-15-9-11-12-9-15-8-10-4-23-10-18-10-13-10-8-8-7-11v-3h-3l2 9 5 9 4 5 8 7 12 9 6 4v2l-3 3v8l4 13 2 4-5-1-21-9-22-12-12-8-13-10-13-12-9-10-12-17-8-16-2-7v-5z"
     fill="#FCD28F"
     id="path16" />
  <path
     transform="translate(332,707)"
     d="m0 0 1 2-8 18-8 24-7 28-7 37-8 10-6 5 1-5-11 12-13 8-16 6-11 2-4-1 9-7 8-8v-2l-11 5-11 3-8 1h-15l-14-3-16-7-7-5 3-1h12l15-2-7-2-16-6-11-7-10-9-9-13-6-13-3-10v-5l6 1 15 7 18 5 13 2h25l22-4 18-6 16-8 12-7 12-9 13-11 19-19z"
     fill="#D79E53"
     id="path17" />
  <path
     transform="translate(549,688)"
     d="m0 0h1l2 26 5 31v15l-4 16-3 11 1 14 1 5v7l-9-2-27-12-26-11-5-2 3-2-11-2h-14l-13 4-7 4v-3l-9 10-12 19-13 22-13 19-10 13-12 14-12 12-11 9-14 12-11 11-10 15-8 15-9 24-6 21-4 21-1 18 1 11-11-2h-19l2-2 10-3 11-1v-18l3-20 6-25 1-4-2 1 3-11 6-16 10-21 7-11 7-8 15-11 10-8 15-14 11-11 13-18 11-19 12-22 11-24 8-22 6-23 3-19 2-21 2-3 2 16v-8l2 3 2 9 5 4-1-6 1-2 13 15 12 11 14 8 10 4 4 1h14l10-4 8-8 6-12 3-13z"
     fill="#D79F53"
     id="path18" />
  <path
     transform="translate(556,874)"
     d="m0 0h1l4 62 1 23v21l-1 12v19l3 11 1 8v24l-2 39h-1v-15h-19l-2 5-4 4h-2v-2l5-4 1-2v-16l-5-12-6-8-9-6-14-4-5-8-6-18-5-25v-23l4-13 7-11 8-8 11-9 16-16 10-13z"
     fill="#FAFAFA"
     id="path19" />
  <path
     transform="translate(376,359)"
     d="m0 0 8 1 16 7 4 2 1-5 6 2 5 5 22 18 10 13 7 15 12 34 4 7 3 8 9 14 11 13 9 7 2 3 3 1 4 4 6 3v2l3 1-2 1-4-2-1 4h-2v2l-2 1 9 2 13 6 10 3 5 3-2 4-9 6-2-1 1-2-7 4-4 1h-9l-3-1v-2l6-5-10 2h-16l-12-5-4-5 5-3 10-3 3-1v-2l-7 1h-19l-13-4-5-3-6-7 1-3 5-2 33-6 10-1-1-1h-5-2l-5 1-4 1h-21l-15-4-12-8-8-9-2-6 2-2h9l23 2h7l-16-3-12-4-15-9-10-9-7-10-4-9v-5l3-2 21 6 27 8-16-7-16-9-12-9-14-14-8-13-4-8-1-4v-9z"
     fill="#FCD18D"
     id="path20" />
  <path
     transform="translate(665,208)"
     d="m0 0h8l-6 8-6 10-6 15-2 10v26l6 33v20l-4 18-7 16-7 10-4 5-8 6-6-1-4-5-5-16-4-7-9-10-13-12-10-12-6-12v-14l7-14 7-7 26-20 12-11 11-13 7-8 5-5 7-6z"
     fill="#D79E52"
     id="path21" />
  <path
     transform="translate(414,366)"
     d="m0 0 6 2 14 8 10 8 9 11 8 15 13 36 11 21 9 12 8 9 11 9 17 11 5 3 8 3 7 3 10 3 1 2-10 15-8 11-10 9-16 11-17 10-6 2 4-7-1-1-9 6-11 4h-17l-5-3 1-4 5-5 6-5-10 3-13 3h-13l-11-3-8-5-1-4 5-4 13-6-8 1h-26l-12-3-12-6-10-9-1-5 3-3 14-2h6v1l-15 4 1 4 7 6 13 6 7 2h29l16-4 18-8 7-4h2v-2l-8-1-12-6 2-1 12 5-3-3-4-3 5 1 8 2h26v2l-9 4-8 3 5 5 10 4h16l11-2-5 6h-2v2h12l7-3 5-2v3l10-7 1-2-5-2-12-4-13-6-10-2v-1h5v-2h2l1-4h3v-2l-6-2-4-3v-2l-4-1-1-3-4-2-8-7-12-15-8-14-3-8-4-8-10-29-8-16-10-13-14-11-7-6z"
     fill="#D79F53"
     id="path22" />
  <path
     transform="translate(720,405)"
     d="m0 0 6 2 7 4v2l17 12 27 15 14 6 11 3 8 1h10l12-2 5-1 5 22-1 3-1-1v10l-3 14-6 11-9 9-14 8-6 1h-2l2-5 4-13v-14l-2 3h-2v-8h-2l-1 7-8 15-2 1-2-9-16-15-8-7-9-11-4-5 4 8-1 2-7-10-8-16-6-15-6-16-5-9z"
     fill="#D79F53"
     id="path23" />
  <path
     transform="translate(332,707)"
     d="m0 0 1 2-8 18-5 12-5 5-7 10h-2l-6 11-5 5h-2l-7 11-8 10h-2l-2 4-12 10-14 8-14 5-10 1 4-4 9-7 3-3-11 3-10 2h-16l-18-4-6-3v-1l13-2h-11l-12-3-16-9-12-11-3-10v-5l6 1 15 7 18 5 13 2h25l22-4 18-6 16-8 12-7 12-9 13-11 19-19z"
     fill="#FCD18E"
     id="path24" />
  <path
     transform="translate(264,339)"
     d="m0 0 9 2 29 14 15 8v2l5 1 24 10 29 11 10 13 13 13-2 1-6 1-2 4 2 11 2 6-13-2-16-5-20-7-16-8-14-8-14-11-15-15-7-10-8-16v-7l3-1 15 5-16-8-3-1v2l-5 3 2 9 9 17 9 11 7 8 11 9 5 5-5-2-15-13-9-10-10-15-6-13-1-10z"
     fill="#FCD18D"
     id="path25" />
  <path
     transform="translate(776,570)"
     d="m0 0h15l11 4 8 6 8 9 4 10 1 4v16l-4 11-5 8-7 7-10 5-4 1h-16l-11-4-9-7-6-8-4-8-2-9v-10l3-11 6-10 10-9z"
     fill="#123077"
     id="path26" />
  <path
     transform="translate(258,276)"
     d="m0 0 4 1 13 9 2-1v-2l6 2 29 14 28 11-1 2-5-1 2 9 5 9 4 5 8 7 12 9 6 4v2l-3 3v8l4 13 2 4-5-1-21-9-22-12-12-8-13-10-13-12-9-10-12-17-8-16-2-7v-5z"
     fill="#FCD18E"
     id="path27" />
  <path
     transform="translate(621,438)"
     d="m0 0 2 1 5 12 8 12 13 15 11 10 15 11 18 11 23 11 18 6 17 4 25 3v15l-1 8-1 1h-17l-23-4-27-9-23-11-14-9-13-10-13-12-9-10-10-15-7-16-1-3v-10z"
     fill="#133178"
     id="path28" />
  <path
     transform="translate(285,411)"
     d="m0 0h7l60 18 34 7 8 2 6 9 8 8 9 6v2l-5 2-1 4 3 9h-26l-16-2-19-5-12-5-16-8-13-9-10-9-9-12-3-10 1-1 13 1h2l-5-1v-2l-8-1-6-1-2 1-1 6-2-1 1-7z"
     fill="#FCD18D"
     id="path29" />
  <path
     transform="translate(420,468)"
     d="m0 0h9l23 2h14l1-1h9l7 11 11 13 9 7 2 3 3 1 4 4 6 3v2l3 1-2 1-4-2-1 4h-2v2l-2 1 9 2 13 6 10 3 5 3-2 4-9 6-2-1 1-2-7 4-4 1h-9l-3-1v-2l6-5-10 2h-16l-12-5-4-5 5-3 10-3 3-1v-2l-7 1h-19l-13-4-5-3-6-7 1-3 5-2 33-6 10-1-1-1h-5-2l-5 1-4 1h-21l-15-4-12-8-8-9-2-6z"
     fill="#F0C481"
     id="path30" />
  <path
     transform="translate(1038,430)"
     d="m0 0 5 1 1 1-1 9-7 12-5 7-1-3 8-11 4-11v-2l-4 1 1 3-4 10-9 12-12 12-15 10-15 7-21 6-10 2h-9l-1-6 4-5 7-12-6 8-11 12-8 4h-3l2-5 4-6h2v-3h2l1-5 8-13 15-6 42-14 15-7z"
     fill="#FCD18D"
     id="path31" />
  <path
     transform="translate(381,546)"
     d="m0 0 14 3h26l10-1-4 3-14 7-1 3 4 4 4 3-1 3-19 8-19 5-14 2h-29l-16-3-16-6-6-4v-2l45-14 32-9z"
     fill="#123077"
     id="path32" />
  <path
     transform="translate(345,478)"
     d="m0 0 20 1 50 1 8 9 13 8 5 2v2l-3 2v8l-14 3-18 2-19-1-19-4-12-5-14-8-10-9-4-6v-3l2-1z"
     fill="#FCD18D"
     id="path33" />
  <path
     transform="translate(465,790)"
     d="m0 0h11l12 3 1 2 16 8 33 17-3 3-2 4-7 1h-7l-10-1h-7l-6 1v2h-2l-2 4-5 6-6 15-1 6v9l-1 4-3 10h-1l-1-17-3-12-10-26-7-15-4-8-2-2-1-6 10-6z"
     fill="#AE793A"
     id="path34" />
  <path
     transform="translate(567,611)"
     d="m0 0 1 4-4 14-2 10h1l1 7h2v-2l5-2 1-4h1v8l-1 7v18l3 24 10 45 1 6v30l-2 8-2-3-5-12-11-20-1 14h-1l-1-18-8-38-2-17-1-17h-1v-8l6-27 7-21z"
     fill="#DAA257"
     id="path35" />
  <path
     transform="translate(673,341)"
     d="m0 0h1l3 15 6 12 6 7 2 1v-2h2l7 11 5 6 2 1v2l-12-3-11-6-12-12v-2h-2l-2 10-1 4v22l2 15 2 1 2 6 2-2 2 5 4 17 5 12 1 4-5-5-8-11-7-15-2 3-1-4h-2l-4-10-3-11-6 6-8-1-4-4-2 8v19l3 11-1 4-8-14-3-9-1-12-1-1-2 1 2-11 4-14 10-2 10-6 9-10 8-13 6-15z"
     fill="#D69D52"
     id="path36" />
  <path
     transform="translate(414,366)"
     d="m0 0 6 2 14 8 10 8 9 11 8 15 13 36 11 21 9 12 8 9 11 9 17 11 5 3 8 3 7 3 10 3 1 2-10 15-8 11-4 2v-2l-10 1 1-4 1-3 5-2v3l10-7 1-2-5-2-12-4-13-6-10-2v-1h5v-2h2l1-4h3v-2l-6-2-4-3v-2l-4-1-1-3-4-2-8-7-12-15-8-14-3-8-4-8-10-29-8-16-10-13-14-11-7-6z"
     fill="#E2B673"
     id="path37" />
  <path
     transform="translate(465,564)"
     d="m0 0 3 1-9 8h-2l-1 6 4 2 22 1-3 5-17 8-29 12-3-1 5-3 1-2h2v-2l8-7 7-8h2v-2l-15 11-17 8-17 5-7 1h-19l-10-2v-2l18-12 17-10 14-8 4-4 8 1h13l16-4z"
     fill="#123076"
     id="path38" />
  <path
     transform="translate(1006,488)"
     d="m0 0 6 2 1 2-4 8-12 12-11 7-13 6-14 4-11 2h-20l-5-1-2-6 8-6 8-9 6-10 8-2 27-3 11-3z"
     fill="#FCD18D"
     id="path39" />
  <path
     transform="translate(438,513)"
     d="m0 0 4 2 9 6 12 5 5 1v2l-17 9-17 6-9 2h-29l-12-4-11-6-6-6 1-4 9-2 8-3 24-3 16-3 2-1z"
     fill="#F1C582"
     id="path40" />
  <path
     transform="translate(397,419)"
     d="m0 0 16 4 32 10 8 6 9 8v-2l1-3 8 16 3 8 1 4h-16l-16-3-12-4-15-9-10-9-7-10-4-9v-5z"
     fill="#FCD18D"
     id="path41" />
  <path
     transform="translate(760,590)"
     d="m0 0 4 1 12 11 8 9 4-2 11-12 7-7 4 1 1 2v38l-3 3-7-1-2 1h-25l-8-1-5 1-3-3v-39z"
     fill="#F4F4F4"
     id="path42" />
  <path
     transform="translate(890,557)"
     d="m0 0 8 1 29 8 11 6-1 4-7 6-10 4-11 1-13-2h-4l9 8-2 4-7 3h-14l-6-2-2-17v-15l1 2 12-5z"
     fill="#E4B977"
     id="path43" />
  <path
     transform="translate(920,533)"
     d="m0 0h15l2 1 30 1 7 3-1 4-5 6-11 7-16 5-7 1h-19l-12-4-6-3v-2l11-8h2v-2l8-7z"
     fill="#FCD18D"
     id="path44" />
  <path
     transform="translate(567,785)"
     d="m0 0h2l-1 6v8l6 23 4 13 2 13 1 13 1 29v52l-1 18-2-1-4-42-5-38-4-34h-2l-2-24h2l-2-19 2-11z"
     fill="#D89F53"
     id="path45" />
  <path
     transform="translate(492,548)"
     d="m0 0h11l4 4h13l8 2 6 1-5 5-15 10-18 10-2-1 4-6-1-1-9 6-11 4h-17l-5-3 1-4 5-5 9-7h3l1-3 11-8z"
     fill="#E2B775"
     id="path46" />
  <path
     transform="translate(467,532)"
     d="m0 0 4 2 8 6 11 3-2 4-13 10-12 6-16 4h-15l-13-4-4-3v-2l-2-1 16-8 17-7 16-8z"
     fill="#F0C481"
     id="path47" />
  <path
     transform="translate(1013,487)"
     d="m0 0 4 1 1 4-4 8-9 10-8 7-11 7-16 6-13 3h-4v2h-16l-2-1h-15l-8 8h-2v2l-11 8h-2v2l18 6h19l15-3 9-4 10-6 5-6v-3l-2-2 7 1 1 5-7 8-8 6-11 5-13 3h-24l-21-6h-5l-7 6-9 4h-3l-2 2-1-11 12-3 8-5 1-3 12-5 5-2v-2l7-6 1-3-1-1-8-1 10-5 11-9 7-8 3-5 1 3-4 7 6-8 2-2-1 5-8 10-9 8h-2l2 3v3h25l19-4 13-5 13-7 12-11 6-8 1-4-4-3z"
     fill="#D79F54"
     id="path48" />
  <path
     transform="translate(420,468)"
     d="m0 0h9l35 3 5 2 7 8 9 9 3 2-5 4-7 1h-21l-15-4-12-8-8-9-2-6z"
     fill="#FCD18D"
     id="path49" />
  <path
     transform="translate(867,249)"
     d="m0 0 4 5 10 15 13 13 8 10 5 11 2 10-6 15-6 10-4 4-1-15-2-8v-13l-3-8-7-6-10-6-3-14-1-14z"
     fill="#D79E52"
     id="path50" />
  <path
     transform="translate(815,386)"
     d="m0 0 5 1 8 6 5 5-6-10-1-2h10l8 4 7 8 1 3v7l-4 6-7 3-11 1-10-2-10-6-8-9-6-5-4-7 15-1z"
     fill="#D8A055"
     id="path51" />
  <path
     transform="translate(931,500)"
     d="m0 0 5 1-4 8-9 9-11 8-3 1 5 2 1 2-7 8h-2v2l-11 6-6 1-1 4-8 5-7 2h-5l-3-9-1-8 19-9 11-7 11-9 10-9 6-7z"
     fill="#F0C482"
     id="path52" />
  <path
     transform="translate(750,243)"
     d="m0 0h10l6 4 3 9 5 14v3l-8-1-9 3h-12l-9-4-4-3h-10l6-7 8-10 9-6z"
     fill="#092242"
     id="path53" />
  <path
     transform="translate(841,500)"
     d="m0 0h1l1 13-4 13-7 9-5 5-8 7-15 7-7 1-1-14-1-9 15-5 12-7 10-9z"
     fill="#133178"
     id="path54" />
  <path
     transform="translate(600,485)"
     d="m0 0 1 3h2l-3 9-3 11-2 21h2l1-9 4-7 1 2v20l4 15 3 7v-11l2-11 2 1 4 22 6 15v-15l2-1 5 19 7 14-1 2-9-9-5-6-8-6-11-11-11-15-5-12-1-7-2-4 1-4 2-7 11-22z"
     fill="#D59D52"
     id="path55" />
  <path
     transform="translate(885,322)"
     d="m0 0 2 2v24l-4 16-6 12-4 5-4 2-8-15-5-6 1-8 4-9 12-7 7-7 4-8z"
     fill="#D79E53"
     id="path56" />
  <path
     transform="translate(811,732)"
     d="m0 0 1 3-7 20-7 14-6 8-2-4-8 4-8 15-11 15-8 11h-4l-5 5v-9l2-13 4-6 14-11 9-10 10-14 3-3-2 10 12-15z"
     fill="#AE793A"
     id="path57" />
  <path
     transform="translate(483,497)"
     d="m0 0h2l5 6 13 8 3 3-5 2v2l-14 4h-19l-13-4-5-3-6-7 1-3 5-2z"
     fill="#FCD18D"
     id="path58" />
  <path
     transform="translate(577,715)"
     d="m0 0h2l6 25 1 6v30l-2 8-2-3-5-12-12-22-5-24v-5h2v3h3v2l5-1 5-3z"
     fill="#D89F53"
     id="path59" />
  <path
     transform="translate(585,530)"
     d="m0 0 2 2 5 12 1 3-1 2 4 1 2 5-3 6-6 1-10 7-8 6-4 2-1 2h-3l-3 10-2 4-4-2 3-14 7-14 5-6 8-16z"
     fill="#D89F53"
     id="path60" />
  <path
     transform="translate(746,425)"
     d="m0 0 5 2 23 13 15 7 10 2 8 1-2 1-2 4-7 7-6 10-5-2-11-9-10-11-13-18-5-6z"
     fill="#AE793A"
     id="path61" />
  <path
     transform="translate(515,521)"
     d="m0 0 9 3 8 4 10 3 5 3-2 4-9 6-2-1 1-2-7 4-4 1h-9l-3-1v-2l6-5-10 2h-16l-9-6v-1l13-2 11-4 8-5z"
     fill="#F0C481"
     id="path62" />
  <path
     transform="translate(739,620)"
     d="m0 0 10 20 7 7 10 6 11 3h13l10-3 9-4-2 5-6 7-9 5-4 1-5 17-5 11-1-3 3-25-8-1-10-4-10-8-7-10-5-14z"
     fill="#D69D52"
     id="path63" />
  <path
     transform="translate(268,342)"
     d="m0 0 5 1 19 9-3 1-13-5-7-1 2 10 8 15 9 11 13 13 17 12 20 11 25 9 3 2h-2v2l-12-2-13-4v-2l-9-3-17-9-7-5-5-5-14-12-11-13-7-11-6-13-1-7 6-2z"
     fill="#E3B875"
     id="path64" />
  <path
     transform="translate(644,571)"
     d="m0 0h2l10 16 11 14 9 10 4 4-3-5-3-12 5 5 12 14 9 14 6 13 4 11v2h-2l-7-13-12-14-7-7-9-6-10-9-9-12-6-11z"
     fill="#D8A055"
     id="path65" />
  <path
     transform="translate(834,330)"
     d="m0 0 7 6 13 8 2 1-1 7-3 8-15 8-12 7-7 3-3-1 6-5 7-11 5-12 1-5z"
     fill="#D69E52"
     id="path66" />
  <path
     transform="translate(1039,432)"
     d="m0 0 4 1-2 9-9 14-3 6-8 8-12 9-16 9-10 4-5 3-27 3-8 2-9 11-2 1 2-5 3-6h-15l2-1 1-4 7-1 8-6 9-11 5-7 1 2-8 14-3 4 1 4h8l25-6 13-5 13-7 12-9 11-11 9-14 2-8-4-2z"
     fill="#E3B573"
     id="path67" />
  <path
     transform="translate(756,222)"
     d="m0 0h8l6 4 2 5v5l1-1v-6l3 4 4 11 3 18-1 7h-1v-11l-7 2-3-2-2 1-3-10-4-5-2-5-7-6-5-2-5 1-4 1 4-4 7-5z"
     fill="#D9A156"
     id="path68" />
  <path
     transform="translate(847,291)"
     d="m0 0h14l5 1v1l-8 1 17 2 6 4 4 6v2l-4-2-5-2h-26l-10 4-4 1-4-2-2 4 2 4 1 3h6l4-4 1 2-5 5-6-1-5-4-1-3v-10l4-7 9-4z"
     fill="#123075"
     id="path69" />
  <path
     transform="translate(1065,364)"
     d="m0 0 3 3-2 11-8 16-7 10-3 6-11 11-17 13-12 7h-2v3l-16 6-38 13-4 2h-3l2-6 11-2 24-8 27-13 12-8 13-11 10-10 10-14 6-12 3-11-11 3 3-3z"
     fill="#E6BC7D"
     id="path70" />
  <path
     transform="translate(324,476)"
     d="m0 0h19l21 2v1h-19l-17 1 3 6 6 7 10 7 15 8 14 4 11 2 19 1 23-3h8v1l-12 3-22 4-3-1-22-2-19-5-14-6-10-7-9-8-5-8 1-6z"
     fill="#DEAA62"
     id="path71" />
  <path
     transform="translate(287,412)"
     d="m0 0 10 2 16 5-4 1-11-2h-7l3 10 7 9 6 7 13 10 16 9v2l5 2 6 3 13 4 9 2v1h-7l-21-6-18-8-14-9-10-9-9-10-6-10-1-5 2-7z"
     fill="#E4B875"
     id="path72" />
  <path
     transform="translate(392,520)"
     d="m0 0h14l-1 2-10 2 3 9v9h-5l12 2h12l11-1v2l-3 1h-29l-12-4-11-6-6-6 1-4 9-2 8-3z"
     fill="#FBCF8B"
     id="path73" />
  <path
     transform="translate(981,399)"
     d="m0 0h2l-1 4-8 15-3 9-4 15-4 9-3 4 2 2-14 3 1-6 9-22 8-16h2l2-5z"
     fill="#F0C481"
     id="path74" />
  <path
     transform="translate(920,533)"
     d="m0 0h15v1l-7 1 4 1 1 4-7 14-7 5-6-1v2l-10-3-6-3v-2l11-8h2v-2l8-7z"
     fill="#F0C481"
     id="path75" />
  <path
     transform="translate(766,606)"
     d="m0 0 4 2 11 11 6 1 14-14 2 1-1 19-1 1h-34l-1-1z"
     fill="#112F73"
     id="path76" />
  <path
     transform="translate(571,883)"
     d="m0 0h2l3 3 5-1 1 5v52l-1 18-2-1-4-42-4-29z"
     fill="#D89F53"
     id="path77" />
  <path
     transform="translate(470,897)"
     d="m0 0 1 2-8 22-10 19-4 9-1 5-1 14-2-2-3-12-1-9 2-8 6-9 7-9 13-21z"
     fill="#AE793A"
     id="path78" />
  <path
     transform="translate(848,229)"
     d="m0 0 4 4 5 11 2 9 2 21 1 8-14-7 5-5 2-10h3l-5-10-4-4-6-1-5 3h-2l-1-3 3-7 3-4h2l-1-3 6 1z"
     fill="#F6CC8C"
     id="path79" />
  <path
     transform="translate(1025,346)"
     d="m0 0 1 3-4 9-7 9-16 17-16 16-4 2-7 8-5-1-2 1 2-7 7-7 17-13 16-13 10-10 6-9z"
     fill="#E1B36F"
     id="path80" />
  <path
     transform="translate(773,1044)"
     d="m0 0 2 4 6 18 7 12 9 9 9 5 4 3-12 1-9-2-6-5-4-8-4-13-1-8z"
     fill="#DBA459"
     id="path81" />
  <path
     transform="translate(377,522)"
     d="m0 0h6v1l-15 4 1 4 7 6 13 6 7 2h32l3 2-10 3h-26l-12-3-12-6-10-9-1-5 3-3z"
     fill="#D9A35A"
     id="path82" />
  <path
     transform="translate(885,322)"
     d="m0 0 2 2v24l-4 16-6 12-4 5-3-1 6-18 3-15v-15l5-9z"
     fill="#F9D192"
     id="path83" />
  <path
     transform="translate(856,588)"
     d="m0 0h1l4 20-2 4-2-1-1 7-11 21-8 10-5 6v-3l9-19 4-17 1-14 2 2 2 19 5-20z"
     fill="#D69E53"
     id="path84" />
  <path
     transform="translate(779,528)"
     d="m0 0h6l4 4 3 10v12l-3 10-1 1h-9l3-8v-16l-3-8-2-4z"
     fill="#CCCACA"
     id="path85" />
  <path
     transform="translate(1013,487)"
     d="m0 0 4 1 1 4-4 8-9 10-8 7-11 7-16 6-15 3-2-2 6-3 17-5 17-9 12-11 6-8 1-4-4-3z"
     fill="#E2B26D"
     id="path86" />
  <path
     transform="translate(907,562)"
     d="m0 0 9 1 13 4 8 4-1 2-2-1-2 4-6 4-10 3h-19l-10-3-2-1v-2l12 3 12 1v-2l5 1 9-2 8-4v-1h-5l-9 3h-6l-1-3-1-10z"
     fill="#EEC17E"
     id="path87" />
  <path
     transform="translate(405,364)"
     d="m0 0 6 2 5 5 22 18 10 13 7 15 5 15-2 2-8-20-6-11-14-15-12-9-11-7-3-4z"
     fill="#F1C582"
     id="path88" />
  <path
     transform="translate(815,386)"
     d="m0 0 5 1 5 4 5 7-7-1h-17v3l6 8v3l-7-6-5-5-6-7-2-4 15-1z"
     fill="#AE793A"
     id="path89" />
  <path
     transform="translate(567,785)"
     d="m0 0h2l-1 6v8l6 23 1 5-8 1-2-1 1 17h-2l-2-23h2l-2-19 2-11z"
     fill="#DDA85F"
     id="path90" />
  <path
     transform="translate(834,224)"
     d="m0 0h6l7 5 2 4-6-1v2l-5 5-2 7 1 3-3 15h-2l-2-8v-25l3-6z"
     fill="#D69E53"
     id="path91" />
  <path
     transform="translate(850,420)"
     d="m0 0 1 2-5 9-7 6-12 4-14-1 5-4 6-7 11-2v-1l9-2z"
     fill="#D8A054"
     id="path92" />
  <path
     transform="translate(501,520)"
     d="m0 0h9l6 2-5 4-11 5-16 3 6 3-4 1-8-5-2-3 5-3 10-3z"
     fill="#FBD08C"
     id="path93" />
  <path
     transform="translate(971,536)"
     d="m0 0 7 1 1 5-7 8-8 6-11 5-13 3h-16l-7-2v-1l17-1 15-3 9-4 10-6 5-6v-3z"
     fill="#D9A45B"
     id="path94" />
  <path
     transform="translate(1055,350)"
     d="m0 0 2 3-3 6-12 13-10 9-4 3-1 3-27 14-2-1 12-8 16-12 10-9 12-12z"
     fill="#E6BC7C"
     id="path95" />
  <path
     transform="translate(324,476)"
     d="m0 0h19l21 2v1h-19l-17 1 6 12 8 7 1 3 9 5 1-2 4 4-1 2-16-8-11-9-7-9-1-6z"
     fill="#E4B878"
     id="path96" />
  <path
     transform="translate(869,251)"
     d="m0 0h2l8 11 13 13 8 7 7 8 3 9v9l-2 2-4-12-6-10-14-15-6-7-9-13z"
     fill="#F7CF90"
     id="path97" />
  <path
     transform="translate(264,339)"
     d="m0 0 9 2 29 14 6 3-1 2-9-3-6-3v-2l-9-3-12-6-3-1v2l-5 3 2 9 9 17 9 11 7 8 11 9 5 5-5-2-15-13-9-10-10-15-6-13-1-10z"
     fill="#F5CE91"
     id="path98" />
  <path
     transform="translate(467,534)"
     d="m0 0 5 3v2l-7 1-3-1v3l-12 7-10 4-7 1-2-1v-3l6-2 4-4 11-5 4-2 8-2z"
     fill="#FCD18D"
     id="path99" />
  <path
     transform="translate(752,385)"
     d="m0 0 5 2 16 9 11 4 15 4 6 8-5 1-5-4-17-5-15-8-10-9z"
     fill="#133178"
     id="path100" />
  <path
     transform="translate(770,257)"
     d="m0 0 5 2 4-1h2v13l-5 8-9 11-1-2 1-4v-8l-1-5 6 1 2 1-4-12z"
     fill="#DFAA61"
     id="path101" />
  <path
     transform="translate(954,471)"
     d="m0 0 1 2-8 14-3 4 1 4 4 2-2 2-4 1-9 11-2 1 2-5 3-6h-15l2-1 1-4 7-1 8-6 9-11z"
     fill="#E2B775"
     id="path102" />
  <path
     transform="translate(1014,433)"
     d="m0 0h2v2l-11 6 1 3-16 6-38 13-4 2h-3l2-6 11-2 24-8 27-13z"
     fill="#E3B876"
     id="path103" />
  <path
     transform="translate(981,399)"
     d="m0 0h2l-1 4-8 15-3 9-2 1-2 3-1-1-2 3-4 1-2 2 1-6 7-14h2l2-5z"
     fill="#F1C582"
     id="path104" />
  <path
     transform="translate(943,472)"
     d="m0 0 1 3 6 2-4 6-9 10-8 4h-3l2-5 4-6h2v-3h2l1-5 3-5z"
     fill="#F1C683"
     id="path105" />
  <path
     transform="translate(250,268)"
     d="m0 0h2l-1 4v9l5 13 9 16 11 14 4 4v2l4 2 2 4 4 2 10 9 12 9 8 5-1 2-15-10-13-11-10-9-10-11-12-17-9-19-2-7v-7z"
     fill="#EECD9B"
     id="path106" />
  <path
     transform="translate(467,469)"
     d="m0 0h9l7 11 8 10 1 5h-5v-3l-11-9-7-9-5-2z"
     fill="#F2C683"
     id="path107" />
  <path
     transform="translate(299,1063)"
     d="m0 0 2 1 2 6 1 10-2 8-3 2-10 1 1-12h1v5l5-5 2-7z"
     fill="#D49C51"
     id="path108" />
  <path
     transform="translate(934,572)"
     d="m0 0h4l-1 4-7 6-10 4-11 1-13-2-7-1-9-7 2-1 10 5 5 1h19l12-4 5-4z"
     fill="#D69E55"
     id="path109" />
  <path
     transform="translate(477,542)"
     d="m0 0h8l5 1-2 4-7 5-5 2-7 4h-2l-1-4 2-7 3-3 2 4h3z"
     fill="#E3B876"
     id="path110" />
  <path
     transform="translate(1065,364)"
     d="m0 0 3 3-2 11-8 16-5 7-8 6 2-4 7-10 6-12 3-11-11 3 3-3z"
     fill="#E1B370"
     id="path111" />
  <path
     transform="translate(834,447)"
     d="m0 0h3l5 22-1 3-1-1v10l-2 9h-1l-2-12-1-12z"
     fill="#F5CA88"
     id="path112" />
  <path
     transform="translate(771,590)"
     d="m0 0h27l-6 7-2 2h-11l-8-8z"
     fill="#F6F6F6"
     id="path113" />
  <path
     transform="translate(756,222)"
     d="m0 0h8l6 4 2 5v4l-4-2-9-4h-9l-9 4-2-1 11-8z"
     fill="#082142"
     id="path114" />
  <path
     transform="translate(784,529)"
     d="m0 0h3l4 8 1 5v12l-1 3-5-1-2-17-2-8z"
     fill="#F6F6F6"
     id="path115" />
  <path
     transform="translate(573,1074)"
     d="m0 0h3l7 20 4 8-7-1-3-3-2-4h-1l-1-7z"
     fill="#D7A056"
     id="path116" />
  <path
     transform="translate(852,304)"
     d="m0 0h5v15l-4 8-6 3h-7l-7-4 1-2 7 2 7-1 6-4 1-6-2-4-7 1-2 1-1-6z"
     fill="#133178"
     id="path117" />
  <path
     transform="translate(336,464)"
     d="m0 0 5 1 12 5 19 5 25 3v2h-32l2-3-23-7-8-5z"
     fill="#D9A157"
     id="path118" />
  <path
     transform="translate(839,532)"
     d="m0 0 5 1 5 12v2l-10 1-5-4-1 2 1-5 2-4z"
     fill="#D8A055"
     id="path119" />
  <path
     transform="translate(931,500)"
     d="m0 0 5 1-4 8-9 9-9 7h-5l8-6 4-8 5-6 2-4z"
     fill="#FCD08D"
     id="path120" />
  <path
     transform="translate(858,258)"
     d="m0 0h1l3 24-14-7 5-5 2-10h3z"
     fill="#F6CE90"
     id="path121" />
  <path
     transform="translate(537,513)"
     d="m0 0 6 1 7 3 10 3 1 2-4 6-9-2-6-3 4-4-9-5z"
     fill="#D8A055"
     id="path122" />
  <path
     transform="translate(1076,303)"
     d="m0 0h1v15l-10 21-8 11h-3l2-4 10-17 6-16z"
     fill="#E1B36F"
     id="path123" />
  <path
     transform="translate(429,512)"
     d="m0 0h8v1l-12 3-22 4-3-1-15-1v-4l21 1z"
     fill="#D69E53"
     id="path124" />
  <path
     transform="translate(742,257)"
     d="m0 0h2l4 8 7 1 4-4 1-4h2v7l-4 5-2 1h-8l-5-3-2-4v-6z"
     fill="#133178"
     id="path125" />
  <path
     transform="translate(826,386)"
     d="m0 0h10l3 2 8 7v1l-12 2-3-5v-3l-3 1z"
     fill="#AE793A"
     id="path126" />
  <path
     transform="translate(856,588)"
     d="m0 0h1l4 20-2 4-2-1-1 7-4 7h-1l1-9 3-13z"
     fill="#D49C51"
     id="path127" />
  <path
     transform="translate(991,515)"
     d="m0 0 2 1-5 5-8 2v2h-2v2l-16 5-7 1-2-2 6-3 17-5z"
     fill="#DFAF6B"
     id="path128" />
  <path
     transform="translate(1044,363)"
     d="m0 0m-1 1m-1 1m-1 1m-1 1m-1 1m-1 1m-1 1m-1 1m-1 1m-1 1m-1 1m-1 1m-1 1m-1 1v3l-8 6 5-2v3l-27 14-2-1 12-8 16-12z"
     fill="#E1B572"
     id="path129" />
  <path
     transform="translate(457,573)"
     d="m0 0h2l1 5h17l10-3 4 1-10 5-4 1h-17l-5-3 1-4z"
     fill="#D49B50"
     id="path130" />
  <path
     transform="translate(446,432)"
     d="m0 0 10 2h5l2 8 1 8-7-6-11-11z"
     fill="#F0C481"
     id="path131" />
  <path
     transform="translate(658,1078)"
     d="m0 0 2 3 2 2 1 12-3 7-4 1-4-2 5-8z"
     fill="#DBA55C"
     id="path132" />
  <path
     transform="translate(691,213)"
     d="m0 0v3l-10 9-7 8-6 12-2 3 1-9 6-11 7-8z"
     fill="#CF974E"
     id="path133" />
  <path
     transform="translate(1064,363)"
     d="m0 0 4 1 1 1v8l-4 11-7 13-7 9v-3l9-14 5-11 2-11-2-2-12 7-4 4h-2v-3z"
     fill="#F1CB91"
     id="path134" />
  <path
     transform="translate(975,490)"
     d="m0 0 8 1-2 3-10 2-20 2h-7v-1zm2 1-3 2 6-1z"
     fill="#D8A259"
     id="path135" />
  <path
     transform="translate(834,224)"
     d="m0 0h6l7 5 2 4-6-2-7 1-5 4v-8z"
     fill="#041E42"
     id="path136" />
  <path
     transform="translate(1025,346)"
     d="m0 0 1 3-4 9-7 9-9 10h-4-3l13-12 7-8 5-9z"
     fill="#DCA962"
     id="path137" />
  <path
     transform="translate(1013,487)"
     d="m0 0 4 1 1 4-4 8-5 6-3-2 2-2 4-11-4-3z"
     fill="#E0B373"
     id="path138" />
  <path
     transform="translate(850,420)"
     d="m0 0 1 2-5 9-7 6-6 1 5-4 2-1-1-1v-6l10-5z"
     fill="#F7CE8D"
     id="path139" />
  <path
     transform="translate(443,397)"
     d="m0 0 5 5 7 15 5 15-2 2-8-20-5-12z"
     fill="#F6CA87"
     id="path140" />
  <path
     transform="translate(267,364)"
     d="m0 0h2l6 10 8 10 7 8 11 9 5 5-5-2-15-13-9-10-10-15z"
     fill="#F1CE99"
     id="path141" />
  <path
     transform="translate(1039,432)"
     d="m0 0 4 1-2 9-7 11-6 4 2-4 6-10 2-8-4-2z"
     fill="#DFB06B"
     id="path142" />
  <path
     transform="translate(308,307)"
     d="m0 0 5 2 7 4 13 8 2 4-5-1-15-10-8-5z"
     fill="#F0C481"
     id="path143" />
  <path
     transform="translate(285,913)"
     d="m0 0 1 2-6 12-7 8h-2l1-6 8-10z"
     fill="#D89F53"
     id="path144" />
  <path
     transform="translate(968,415)"
     d="m0 0 1 2-1 4 1 6-5 6-4 1-2 2 1-6 7-14z"
     fill="#FBCF8C"
     id="path145" />
  <path
     transform="translate(1077,315)"
     d="m0 0h2l-3 9-8 16-10 14-3 3 1-7 4-2 8-13 8-17z"
     fill="#F1CE99"
     id="path146" />
  <path
     transform="translate(771,383)"
     d="m0 0 10 3 7 2 3 5-1 2-12-5-7-6z"
     fill="#AE793A"
     id="path148" />
  <path
     transform="translate(624,1052)"
     d="m0 0 12 2 5 4-8-1-20-1 3-2z"
     fill="#D79E52"
     id="path149" />
  <path
     transform="translate(556,647)"
     d="m0 0h1l-1 10-1 6-1 27h-1l-1-17h-1v-8l2-10h2z"
     fill="#BD8743"
     id="path150" />
  <path
     transform="translate(1032,453)"
     d="m0 0v3l-3 6-8 8-3 1 1-6 8-8z"
     fill="#E6BC7C"
     id="path151" />
  <path
     transform="translate(276,344)"
     d="m0 0 6 1 26 13-1 2-9-3-6-3v-2l-9-3-7-4z"
     fill="#ec9"
     id="path152" />
  <path
     transform="translate(844,289)"
     d="m0 0h19v1l-16 2-10 2-9 5-4 3 2-4 6-5z"
     fill="#082350"
     id="path153" />
  <path
     transform="translate(438,513)"
     d="m0 0 4 2-1 2-1-1-10 1-22 4 1-3 16-3 2-1z"
     fill="#FACF8B"
     id="path154" />
  <path
     transform="translate(866,544)"
     d="m0 0 4 2v2h2l1 8-3 3-3-1-2-8v-5z"
     fill="#F8CD8A"
     id="path155" />
  <path
     transform="translate(498,485)"
     d="m0 0 8 6 11 9 18 11-3 1-16-10-14-11-4-4z"
     fill="#D9A257"
     id="path156" />
  <path
     transform="translate(1061,384)"
     d="m0 0 2 1-6 11-4 5-8 6 2-4 7-10 4-7h2z"
     fill="#DFAF6A"
     id="path157" />
  <path
     transform="translate(332,489)"
     d="m0 0 8 6 10 7 3 3-1 2-6-2-6-4v-3l-8-7z"
     fill="#DBA65D"
     id="path158" />
  <path
     transform="translate(286,336)"
     d="m0 0 4 2 10 9 12 9 8 5-1 2-15-10-13-11-5-4z"
     fill="#F1CC92"
     id="path159" />
  <path
     transform="translate(885,577)"
     d="m0 0 12 3 12 1v-2l5 2v2h-17l-10-3-2-1z"
     fill="#F0C481"
     id="path160" />
  <path
     transform="translate(1038,430)"
     d="m0 0 5 1 1 1-1 9-7 12-5 7-1-3 8-11 4-11v-2h-10l3-2z"
     fill="#F1CB92"
     id="path161" />
  <path
     transform="translate(805,397)"
     d="m0 0h2l6 9 7 7 5 2v1l-7-1-6-4-2-4-6-9z"
     fill="#F9D090"
     id="path162" />
  <path
     transform="translate(646,446)"
     d="m0 0h1l2 14 5 12-1 2-7-8z"
     fill="#D69E53"
     id="path163" />
  <path
     transform="translate(815,386)"
     d="m0 0 5 1 3 3-10-1-17 2 4 6 2 1v2l-4-2-6-9 15-1z"
     fill="#CE964D"
     id="path164" />
  <path
     transform="translate(293,811)"
     d="m0 0 1 2-2 13-6 1-1-4z"
     fill="#AF7A3A"
     id="path165" />
  <path
     transform="translate(367,477)"
     d="m0 0 15 2v-2l15 1v2h-32z"
     fill="#D69E53"
     id="path166" />
  <path
     transform="translate(780,269)"
     d="m0 0 1 2-5 8-7 5v-9h5l2-3h2z"
     fill="#DBA358"
     id="path167" />
  <path
     transform="translate(567,611)"
     d="m0 0 1 4-5 17-2 3h-2l1-7 6-15z"
     fill="#D49C52"
     id="path168" />
  <path
     transform="translate(532,576)"
     d="m0 0 2 4-2 3h-2l-1 4-8 13-1-3 10-18z"
     fill="#CC954D"
     id="path169" />
  <path
     transform="translate(486,493)"
     d="m0 0 7 1v2l-10 2-12 2h-6v-2l9-1 9-2z"
     fill="#DFB16C"
     id="path170" />
  <path
     transform="translate(1014,433)"
     d="m0 0h2v2l-11 6 1 3-7 3-3-1 4-2-2-2z"
     fill="#D8A45D"
     id="path171" />
  <path
     transform="translate(1076,303)"
     d="m0 0h1v15l-4 8-3-1 4-12z"
     fill="#E3B876"
     id="path172" />
  <path
     transform="translate(538,564)"
     d="m0 0 1 2-4 8-2-1-5 6-6 2 6-7 4-3 2-4z"
     fill="#DDA963"
     id="path173" />
  <path
     transform="translate(332,707)"
     d="m0 0 1 2-6 13-5 1 2-4-2-1z"
     fill="#ECC893"
     id="path174" />
  <path
     transform="translate(552,670)"
     d="m0 0h1v15h-2v20h-1v-23z"
     fill="#0D2A65"
     id="path175" />
  <path
     transform="translate(824,429)"
     d="m0 0h11l-1 4-2 1h-8z"
     fill="#E2B775"
     id="path176" />
  <path
     transform="translate(997,514)"
     d="m0 0 3 1-14 9-8 3v-2h2v-2l5-3 5-1 3-4z"
     fill="#EBC386"
     id="path177" />
  <path
     transform="translate(265,277)"
     d="m0 0 5 1 7 4 1 4-3 1-7-5z"
     fill="#ECC282"
     id="path178" />
  <path
     transform="translate(766,271)"
     d="m0 0 6 1v3l-2 1v7l4-3-2 4-5 6-1-2 1-4v-8z"
     fill="#D79F55"
     id="path179" />
  <path
     transform="translate(849,256)"
     d="m0 0 2 1v8l-5 5-5-1-2-5 3 2h5z"
     fill="#133178"
     id="path180" />
  <path
     transform="translate(686,741)"
     d="m0 0 1 3-8 15-3-1 2-5z"
     fill="#AE793A"
     id="path181" />
  <path
     transform="translate(451,535)"
     d="m0 0v3l-17 6h-5l1-2z"
     fill="#F5CA87"
     id="path182" />
  <path
     transform="translate(755,563)"
     d="m0 0 15 1v3l-4 1-10-2z"
     fill="#DAA45C"
     id="path183" />
  <path
     transform="translate(385,514)"
     d="m0 0 19 2-3 2h-16z"
     fill="#D59C51"
     id="path184" />
  <path
     transform="translate(342,470)"
     d="m0 0 9 1 9 3 9 2v1h-7l-18-5z"
     fill="#EFC78B"
     id="path185" />
  <path
     transform="translate(931,571)"
     d="m0 0 3 1-2 4-6 4-12 3 1-3 8-2 8-4z"
     fill="#EEC280"
     id="path186" />
  <path
     transform="translate(955,442)"
     d="m0 0 1 2-5 13h2v2l-5 1 1-6 4-10z"
     fill="#F6CA87"
     id="path187" />
  <path
     transform="translate(292,298)"
     d="m0 0h5l8 6 2 4-5-2-10-7z"
     fill="#E3B876"
     id="path188" />
  <path
     transform="translate(843,215)"
     d="m0 0 5 2 9 10 1 3-2 1-8-10-5-4z"
     fill="#E2B26C"
     id="path189" />
  <path
     transform="translate(909,528)"
     d="m0 0 5 1 1 2-7 8-4 1 5-5 3-5-9 1v-2z"
     fill="#F9CD8A"
     id="path190" />
  <path
     transform="translate(587,301)"
     d="m0 0 2 2 3 9-3 1-1 2-2-8v-5z"
     fill="#D69D51"
     id="path191" />
  <path
     transform="translate(1038,372)"
     d="m0 0h2l-1 3-14 11-4 1 5-5 10-8z"
     fill="#F5CC8E"
     id="path192" />
  <path
     transform="translate(871,314)"
     d="m0 0 1 2v7l3 3 6-1-2 4h-6l-3-4-1-6z"
     fill="#133178"
     id="path193" />
  <path
     transform="translate(737,259)"
     d="m0 0h2l2 8 2 3-5-2-4-3 1-4z"
     fill="#E5E4E4"
     id="path194" />
  <path
     transform="translate(753,240)"
     d="m0 0 7 1 2 3h-12l-7 2 4-4z"
     fill="#D49F58"
     id="path195" />
  <path
     transform="translate(574,695)"
     d="m0 0h1l4 20h-2l-3-10-2-3h2l-1-5z"
     fill="#D9A258"
     id="path196" />
  <path
     transform="translate(260,344)"
     d="m0 0 3 3 2 9 3 6v2h-2l-5-11z"
     fill="#F4CD90"
     id="path197" />
  <path
     transform="translate(964,527)"
     d="m0 0 2 1v3l-11 2-2-2 6-3z"
     fill="#E3B87A"
     id="path198" />
  <path
     transform="translate(876,308)"
     d="m0 0h6l1 5 2-1-1 6-4 2v-8l-5-2z"
     fill="#133178"
     id="path199" />
  <path
     transform="translate(981,399)"
     d="m0 0h2l-1 4-10 9-1 2-2-1 9-11z"
     fill="#F4C885"
     id="path200" />
  <path
     transform="translate(991,515)"
     d="m0 0 2 1-5 5-8 2v2h-2l-1 2 1-5z"
     fill="#DBA65D"
     id="path201" />
  <path
     transform="translate(1016,492)"
     d="m0 0 1 3-6 9-3 2-2-2 6-7 3-3z"
     fill="#E8C186"
     id="path202" />
  <path
     transform="translate(364,430)"
     d="m0 0 8 1 10 3v1h-7l-11-3z"
     fill="#D9A358"
     id="path203" />
  <path
     transform="translate(880,576)"
     d="m0 0 5 2 7 3 6 2v2l-9-1-9-7z"
     fill="#CB954F"
     id="path204" />
  <path
     transform="translate(555,527)"
     d="m0 0 1 2-9 14-3 3 1-4 9-14z"
     fill="#F2C98B"
     id="path205" />
  <path
     transform="translate(493,1038)"
     d="m0 0 7 1 1 3h-14l3-3z"
     fill="#AE793A"
     id="path206" />
  <path
     transform="translate(535,540)"
     d="m0 0v3l-3 3h6l-3 3h-6l1-4 1-3z"
     fill="#E8BD7A"
     id="path208" />
  <path
     transform="translate(803,399)"
     d="m0 0 3 1 6 8v3l-7-6-2-3z"
     fill="#D8A258"
     id="path209" />
  <path
     transform="translate(556,647)"
     d="m0 0h1l-1 10-2 7-2 1 1-10h2z"
     fill="#B88241"
     id="path210" />
  <path
     transform="translate(429,512)"
     d="m0 0h8v1l-12 3h-7l-2-2z"
     fill="#DBA65D"
     id="path211" />
  <path
     transform="translate(958,494)"
     d="m0 0 4 1 1 2-19 1v-1z"
     fill="#DCA860"
     id="path212" />
  <path
     transform="translate(844,289)"
     d="m0 0h19v1l-16 2h-6z"
     fill="#0A2659"
     id="path213" />
  <path
     transform="translate(228,1080)"
     d="m0 0 3 1 2 3v3l2 1-2 2-4-3z"
     fill="#EABD7A"
     id="path214" />
  <path
     transform="translate(308,307)"
     d="m0 0 5 2 6 4 1 3-5-2-8-5z"
     fill="#E3B876"
     id="path215" />
  <path
     transform="translate(211,821)"
     d="m0 0h6l-4 3-9 2 2-2-3-2z"
     fill="#AE793A"
     id="path216" />
  <path
     transform="translate(498,518)"
     d="m0 0h8l-3 2-9 3v-2l-2-1z"
     fill="#E3B876"
     id="path217" />
  <path
     transform="translate(418,516)"
     d="m0 0 4 1-1 2-13 2 1-3z"
     fill="#F6CB87"
     id="path218" />
  <path
     transform="translate(358,427)"
     d="m0 0 8 2-2 1v2l-10-2z"
     fill="#DFB06B"
     id="path219" />
  <path
     transform="translate(465,567)"
     d="m0 0 3 1-6 5-1 5h-2v-6z"
     fill="#EDC07C"
     id="path220" />
  <path
     transform="translate(931,489)"
     d="m0 0 1 2-1 2h3v2l-5 2h-3l2-5z"
     fill="#FBD08C"
     id="path221" />
  <path
     transform="translate(1048,405)"
     d="m0 0 2 2-7 8-5 4 2-4 5-6z"
     fill="#ECC68C"
     id="path222" />
  <path
     transform="translate(292,353)"
     d="m0 0 10 2 6 3-1 2-9-3-6-3z"
     fill="#E6B670"
     id="path223" />
  <path
     transform="translate(1064,342)"
     d="m0 0 1 2-7 10-3 3 1-7 4-2z"
     fill="#F6CF92"
     id="path224" />
  <path
     transform="translate(768,1017)"
     d="m0 0h1l1 11-2 4-2-9 1-5z"
     fill="#D49D54"
     id="path225" />
  <path
     transform="translate(457,573)"
     d="m0 0h2l2 8-5-1-1-4z"
     fill="#D5A35E"
     id="path226" />
  <path
     transform="translate(498,485)"
     d="m0 0 8 6 6 5-3 1-11-10z"
     fill="#DAA45A"
     id="path227" />
  <path
     transform="translate(369,476)"
     d="m0 0h13v3l-13-1z"
     fill="#DFAF69"
     id="path228" />
  <path
     transform="translate(1070,325)"
     d="m0 0 3 2-5 10h-2l3-11z"
     fill="#DAA45A"
     id="path229" />
  <path
     transform="translate(467,532)"
     d="m0 0 4 2 2 3-6-2-5 2-4-1z"
     fill="#EABF7C"
     id="path230" />
  <path
     transform="translate(900,521)"
     d="m0 0 2 1-4 5-10 5v-2l11-8z"
     fill="#FACF8B"
     id="path231" />
  <path
     transform="translate(377,522)"
     d="m0 0h6v1l-12 3-3-1-1-2z"
     fill="#D29A50"
     id="path232" />
  <path
     transform="translate(814,409)"
     d="m0 0 4 2 4 3 3 2-7-1-5-3z"
     fill="#EDBF7C"
     id="path233" />
  <path
     transform="translate(170,829)"
     d="m0 0 20 1v1l-14 1-2 1z"
     fill="#F0C480"
     id="path235" />
  <path
     transform="translate(778,701)"
     d="m0 0 1 3-3 10-2 1 2-11z"
     fill="#DAA359"
     id="path236" />
  <path
     transform="translate(522,513)"
     d="m0 0 6 2 7 2 2 4-6-2-9-5z"
     fill="#D89F53"
     id="path237" />
  <path
     transform="translate(459,497)"
     d="m0 0h15v1h-9v2l2 1-7-1z"
     fill="#E3B876"
     id="path238" />
  <path
     transform="translate(500,573)"
     d="m0 0h2v4l-6 3-2-1 3-5z"
     fill="#DEB070"
     id="path239" />
  <path
     transform="translate(449,540)"
     d="m0 0h2v2l-4 1-1 3-7 1v-2z"
     fill="#EBC07D"
     id="path240" />
  <path
     transform="translate(662,419)"
     d="m0 0h1l3 15-1 3-1-4h-2z"
     fill="#B17B3B"
     id="path241" />
</svg>
